<?xml version="1.0" encoding="UTF-8"?>
<svg viewBox="0 0 1576 662" xmlns="http://www.w3.org/2000/svg">
<path d="m1574.3 470.23-38.29-319.2c-10.3-85.94-83.35-150.77-169.92-150.77h-365.71c-86.57 0-159.62 64.83-169.92 150.77l-38.25 319.2c-5.82 48.55 9.44 97.38 41.91 133.95 32.43 36.6 79.1 57.56 128.01 57.56h442.25c48.87 0 95.54-20.96 128.01-57.56 32.43-36.56 47.73-85.39 41.91-133.95zm-104.89 78.48c-17.38 19.58-41.36 30.35-67.5 30.35h-437.3c-26.18 0-50.17-10.77-67.5-30.35-17.38-19.58-25.2-44.66-22.1-70.65l37.82-315.62c5.43-45.29 43.95-79.5 89.6-79.5h361.62c45.64 0 84.17 34.2 89.6 79.5l37.86 315.62c3.1 25.99-4.77 51.07-22.1 70.65z" fill="#004956"/>
<path d="m1402.9 372.25c-6.02-9.23-15.27-15.56-26.05-17.83-10.8-2.27-21.8-0.2-31.03 5.81-110.11 71.81-217.27 71.8-327.59-0.01-9.23-6.01-20.26-8.08-31.03-5.79-10.78 2.28-20.02 8.62-26.03 17.85s-8.07 20.25-5.79 31.03 8.62 20.02 17.85 26.03c68.94 44.88 139.22 67.63 208.89 67.63 69.68 0 139.91-22.76 208.75-67.65 9.23-6.02 15.56-15.27 17.83-26.05 2.28-10.77 0.22-21.79-5.8-31.02z" fill="#004956"/>
<path d="m652.79 199.93-39.12 13.48c4.27 13.81 9.53 33.53 9.53 45.03 0 12.49-7.89 20.05-23.01 20.05-15.45 0-24.65-3.62-24.65-24v-35.17h-41.42v35.17c0 20.38-9.2 24-25.64 24-16.11 0-25.31-3.62-25.31-24v-35.17h-41.75v34.84c0 20.71-11.18 24.32-35.17 24.32-24.65 0-33.2-4.93-33.2-31.89v-150.86h-43.72v153.18c0 24.98-8.55 29.58-33.19 29.58h-0.01c-19.4 0-30.89-3.93-30.89-28.59v-113.09h-41.1v23.36c-77.91 16.08-105.84 48.63-105.84 89.4 0 38.77 25.63 63.77 63.1 63.77 27.96 0 42.07-14.14 48.33-33.21 5.59 33.86 25.28 53.56 63.71 53.58l0.06 0.01c29.26 0 45.69-13.15 52.59-33.2 8.55 22.35 27.94 33.2 57.52 33.2 27.28 0 45.03-9.86 51.93-30.24 6.9 20.71 23.34 30.24 46.68 30.24s39.45-9.86 46.02-30.57c6.9 20.71 23.67 30.57 50.62 30.57 40.76 0 65.74-26.63 65.74-74.95 0.02-17.75-4.91-42.08-11.81-58.84zm-428.64 48.64c-6.56 5.26-19.07 9.22-37.48 9.22-16.77 0-33.52-4.59-33.52-15.78 0-12.18 17.41-24.33 70.99-33.21v39.77h0.01z" fill="#004956"/>
<path d="m246.33 126.61c13.34 0 24.32-9.68 24.32-23.28 0-14.38-11.51-23.28-24.32-23.28-13.34 0-24.59 9.15-24.59 23.28 0 14.39 12.03 23.28 24.59 23.28z" fill="#004956"/>
<path d="m191.36 126.61c13.34 0 24.32-9.68 24.32-23.28 0-14.38-11.51-23.28-24.32-23.28-13.34 0-24.59 9.15-24.59 23.28 0 14.39 12.03 23.28 24.59 23.28z" fill="#004956"/>
<path d="m0.52002 569.07 6.47-35.15c12.65 9 35.15 17.15 53.98 17.15 16.31 0 25.87-5.34 25.87-14.34 0-24.46-84.91-1.69-84.91-61.01 0-30.93 25.59-51.17 66.92-51.17 22.21 0 42.74 6.19 57.36 13.78l-7.03 34.3c-13.78-7.31-31.21-14.06-48.08-14.06-15.46 0-25.02 5.9-25.02 14.34 0 25.59 84.91 3.66 84.91 59.04 0 30.37-28.96 51.73-71.7 51.73-25.59 0.01-46.12-7.58-58.77-14.61z" fill="#004956"/>
<path d="m273.24 429.61h44.42v149.86h-44.42v-24.74c-12.09 17.99-29.24 28.4-51.45 28.4-37.68 0-73.95-26.71-73.95-78.73s34.58-79.29 73.95-79.29c21.93 0 39.08 8.15 51.45 24.46v-19.96zm0 74.23c-8.15-27.84-24.46-41.89-43.02-41.89-19.96 0-35.43 14.9-35.43 41.89 0 26.71 15.74 42.46 35.71 42.46 19.41-0.01 35.43-17.16 42.74-42.46z" fill="#004956"/>
<path d="M350.28 579.47V381.81H394.7V579.47H350.28Z" fill="#004956"/>
<path d="m427.32 579.47v-197.66h44.42v197.66h-44.42z" fill="#004956"/>
<path d="m622.44 429.61h44.42v149.86h-44.42v-24.74c-12.09 17.99-29.24 28.4-51.45 28.4-37.68 0-73.95-26.71-73.95-78.73s34.58-79.29 73.95-79.29c21.93 0 39.08 8.15 51.45 24.46v-19.96zm0 74.23c-8.15-27.84-24.46-41.89-43.02-41.89-19.96 0-35.43 14.9-35.43 41.89 0 26.71 15.74 42.46 35.71 42.46 19.4-0.01 35.43-17.16 42.74-42.46z" fill="#004956"/>
</svg>
